<svg width="30" height="30" fill="none" xmlns="http://www.w3.org/2000/svg"><path d="M22.793 2.344h-4.42A3.522 3.522 0 0 0 15.06 0c-1.528 0-2.831.98-3.315 2.344H7.266A3.52 3.52 0 0 0 3.75 5.859v20.625A3.52 3.52 0 0 0 7.266 30h15.53a3.52 3.52 0 0 0 3.513-3.516V5.86a3.52 3.52 0 0 0-3.516-3.515Zm-8.906 2.344V3.516c0-.647.525-1.172 1.172-1.172.646 0 1.171.525 1.171 1.172v1.171h2.344v2.286h-7.031V4.688h2.344Zm10.078 21.796c0 .646-.525 1.172-1.17 1.172H7.266a1.173 1.173 0 0 1-1.171-1.172V5.86c0-.646.525-1.171 1.172-1.171h1.933v4.628h11.719V4.687h1.875c.646 0 1.172.526 1.172 1.172v20.625ZM19.524 13.48l1.733 1.577-7.505 8.247-4.957-4.795 1.63-1.684 3.22 3.115 5.879-6.46Z" fill="#000"/></svg>