<svg width="30" height="30" fill="none" xmlns="http://www.w3.org/2000/svg"><path d="M25.86 17.782V.68A.679.679 0 0 0 25.18 0H7.534A3.398 3.398 0 0 0 4.14 3.394v23.212A3.398 3.398 0 0 0 7.534 30h17.647a.679.679 0 0 0 0-1.358h-.383V24.57h.383a.679.679 0 0 0 .679-.679v-6.108Zm-1.358 5.43h-3.79l3.79-3.79v3.79Zm0-18.063-3.79-3.792h3.79V5.15ZM5.498 3.394c0-1.123.913-2.037 2.036-2.037v16.147a.679.679 0 0 0 1.358 0V1.357h9.9l5.71 5.712v10.433l-5.71 5.71h-9.9V19.82a.679.679 0 0 0-1.358 0v3.394c-.763 0-1.469.253-2.036.68v-20.5ZM23.44 28.642H7.534a2.038 2.038 0 0 1-2.036-2.036c0-1.122.913-2.036 2.036-2.036h15.907v4.072Z" fill="#000"/></svg>