<svg width="30" height="30" fill="none" xmlns="http://www.w3.org/2000/svg"><g clip-path="url(#a)" fill="#000"><path d="M29.002 6.873a3.226 3.226 0 0 0-2.367-.999h-4.734v-.057c0-.712-.285-1.397-.77-1.853a2.61 2.61 0 0 0-1.853-.77h-8.556A2.627 2.627 0 0 0 8.07 5.817v.057H3.365c-.941 0-1.768.371-2.367.999A3.39 3.39 0 0 0 0 9.24V23.44c0 .941.37 1.768.998 2.367a3.39 3.39 0 0 0 2.367.998h23.27c.941 0 1.768-.37 2.367-.998A3.39 3.39 0 0 0 30 23.44V9.24c0-.942-.37-1.769-.998-2.367Zm-.485 16.568h-.028c0 .513-.2.97-.542 1.312a1.83 1.83 0 0 1-1.312.542H3.365c-.513 0-.97-.2-1.312-.542a1.83 1.83 0 0 1-.542-1.312V9.24c0-.514.2-.97.542-1.312a1.83 1.83 0 0 1 1.312-.542h5.504c.428 0 .77-.342.77-.77v-.827c0-.314.114-.599.313-.799.2-.2.485-.313.799-.313h8.527c.313 0 .598.114.798.313.2.2.314.485.314.799v.827c0 .428.342.77.77.77h5.503c.514 0 .97.2 1.312.542.342.342.542.798.542 1.312V23.44Z"/><path d="M15 9.325c-1.94 0-3.707.799-4.962 2.053a6.959 6.959 0 0 0-2.053 4.962c0 1.94.798 3.707 2.053 4.962A6.959 6.959 0 0 0 15 23.355c1.94 0 3.707-.798 4.962-2.053a6.96 6.96 0 0 0 2.053-4.962c0-1.939-.798-3.707-2.053-4.962A7.028 7.028 0 0 0 15 9.325Zm3.878 10.922A5.573 5.573 0 0 1 15 21.844a5.573 5.573 0 0 1-3.878-1.597 5.452 5.452 0 0 1-1.597-3.878c0-1.512.627-2.88 1.597-3.879A5.452 5.452 0 0 1 15 10.893c1.512 0 2.88.628 3.878 1.597a5.452 5.452 0 0 1 1.597 3.879c.029 1.511-.599 2.88-1.597 3.878ZM25.152 12.091a1.397 1.397 0 1 0 0-2.794 1.397 1.397 0 0 0 0 2.794Z"/></g><defs><clipPath id="a"><path fill="#fff" d="M0 0h30v30H0z"/></clipPath></defs></svg>