<svg width="30" height="30" fill="none" xmlns="http://www.w3.org/2000/svg"><path d="M24.776 0h-.002c-.789 0-1.467.589-1.579 1.37l-2.323 16.264a1.519 1.519 0 0 0 1.138 1.693l.778.194-.418 8.377a1.984 1.984 0 0 0 .549 1.48c.381.4.897.622 1.45.622a2.004 2.004 0 0 0 2.003-2.002V1.595c0-.88-.716-1.595-1.596-1.595Zm.624 27.998a1.031 1.031 0 1 1-2.06-.052l.44-8.775a.486.486 0 0 0-.368-.496l-1.167-.291a.55.55 0 0 1-.411-.612l2.323-16.265a.626.626 0 0 1 .617-.535h.002c.344 0 .624.28.624.623v26.403ZM18.596.462a.487.487 0 0 0-.971.048l.415 8.302h-1.517V.486a.486.486 0 0 0-.972 0v8.326h-1.517L14.449.51a.486.486 0 0 0-.971-.048l-.49 9.779a1.53 1.53 0 0 0 .677 1.343l.587.391c.16.107.25.284.245.475l-.458 15.496a1.983 1.983 0 0 0 .565 1.449c.38.39.888.605 1.433.605.544 0 1.053-.215 1.432-.605.38-.39.58-.905.565-1.45l-.458-15.495a.548.548 0 0 1 .245-.475l.587-.391a1.53 1.53 0 0 0 .676-1.343l-.488-9.78Zm-.727 10.313-.587.392c-.44.293-.693.783-.677 1.312l.458 15.494c.008.28-.095.544-.29.744-.195.2-.457.311-.736.311-.28 0-.541-.11-.736-.31a1.018 1.018 0 0 1-.29-.744l.458-15.495a1.514 1.514 0 0 0-.678-1.312l-.587-.392a.554.554 0 0 1-.244-.486l.025-.505h4.104l.025.505a.553.553 0 0 1-.245.486ZM7.743 0C6.731 0 5.33.508 4.402 2.93c-.57 1.49-.773 3.244-.773 4.295 0 1.446.738 2.759 1.974 3.513.343.21.543.565.534.948L5.74 27.947a1.988 1.988 0 0 0 .57 1.449c.38.39.889.604 1.433.604.545 0 1.054-.215 1.434-.604.38-.39.582-.904.57-1.448l-.398-16.262c-.009-.383.19-.738.535-.948a4.088 4.088 0 0 0 1.974-3.513c0-1.05-.203-2.806-.773-4.295C10.157.508 8.755 0 7.743 0Zm1.634 9.908a2.066 2.066 0 0 0-1 1.802l.397 16.261c.007.28-.097.545-.293.746-.195.2-.458.31-.738.31-.28 0-.542-.11-.738-.31-.196-.2-.3-.466-.293-.746l.396-16.26a2.066 2.066 0 0 0-1-1.803 3.123 3.123 0 0 1-1.507-2.683c0-2.04.768-6.253 3.142-6.253 2.374 0 3.143 4.213 3.143 6.253a3.122 3.122 0 0 1-1.509 2.683Z" fill="#000"/></svg>