<svg width="120" height="120" fill="none" xmlns="http://www.w3.org/2000/svg"><path d="M0 60C0 26.863 26.863 0 60 0s60 26.863 60 60-26.863 60-60 60S0 93.137 0 60Z" fill="#000"/><path d="M24.37 72.366c-.36-1.166-1.017-1.602-1.968-1.307-.837.258-1.43.907-1.776 1.945-.3 1.05-.316 2.013-.046 2.887.278.899.868 1.66 1.77 2.286.94.614 1.886.774 2.838.48l.057-.017c1.104-.341 1.87-1.097 2.301-2.268.43-1.17.523-2.29.276-3.357a25.45 25.45 0 0 0-.65-2.712 18.108 18.108 0 0 0-.903-2.315 15.618 15.618 0 0 0-1.335-2.5 43.59 43.59 0 0 0-1.394-2.083c-.454-.658-1.561-2.151-3.323-4.48-1.295.533-2.096 1.046-2.402 1.54-.076.157-.214.252-.411.287-.518.08-.707-.061-.569-.423.368-.7 1.287-1.435 2.758-2.209a15.946 15.946 0 0 1-2.512-4.89c-1.163-3.764-.523-6.755 1.919-8.972.794-.805 1.819-1.4 3.075-1.789 4.491-1.387 7.184-.703 8.077 2.054.27.874.202 1.733-.204 2.577-.17.398-.673.926-1.512 1.584-.847.634-1.67 1.075-2.47 1.322-.799.246-1.566.258-2.303.033-.737-.225-1.199-.64-1.386-1.248-.383-1.105.205-1.899 1.766-2.38.342-.107.57-.11.684-.013.106.074.121.189.044.346-.046.12-.24.234-.583.34-.776.186-1.066.595-.871 1.226.24.644 1.046.755 2.416.331.305-.094.553-.37.745-.828.23-.47.402-.856.518-1.158.146-.338.125-.81-.063-1.417-.548-1.773-2.04-2.283-4.476-1.53-1.142.353-1.869.697-2.182 1.033-1.328 1.235-1.96 2.561-1.898 3.978.049 1.103.298 2.382.748 3.84.45 1.457 1.322 2.996 2.616 4.618.48-.201 1.195-.45 2.147-.743l2.044-.672c.57-.176.974-.354 1.21-.533.268-.216.227-.416-.122-.6-.35-.186-.447-.435-.294-.748.146-.338.425-.584.836-.737.411-.154.83-.15 1.254.011.607.345.963.687 1.068 1.027.105.34.024.684-.244 1.033-.512.77-1.606 1.414-3.28 1.932l-2.112.453-1.713.529c.325.378.9 1.025 1.725 1.94 3.3 3.663 5.344 6.77 6.132 9.319.405 1.311.663 2.282.775 2.913.26 1.382-.104 2.971-1.092 4.766-.988 1.795-2.41 2.993-4.268 3.594-1.066.329-2.165.35-3.296.06-1.087-.276-1.974-.786-2.663-1.531-.72-.709-1.206-1.476-1.461-2.302-.496-1.603-.06-3.227 1.308-4.873.787-.962 1.619-1.578 2.494-1.848 1.104-.341 2.038-.151 2.803.57.296.281.48.543.556.786l.157.51c.188.607.143 1.472-.136 2.596-.27 1.148-.787 1.84-1.548 2.074-.685.212-1.308.085-1.869-.38-.167-.135-.196-.298-.089-.491.145-.205.351-.348.618-.43.342-.106.62-.019.831.261l.216.093c.526-.189.798-.658.816-1.409.064-.738.006-1.398-.174-1.981ZM44.671 52.406c.952-.294 1.879-.061 2.78.698.94.747 1.56 1.606 1.86 2.577.3.972.147 2.23-.46 3.774-.615 1.52-1.555 2.728-2.82 3.625-1.121.692-1.89 1.102-2.31 1.232-1.575.433-3.282.508-5.121.225a7.261 7.261 0 0 1-3.245-1.391c-.985-.76-1.582-1.48-1.793-2.16-.21-.68-.327-1.667-.352-2.963.005-1.332.642-2.846 1.911-4.541 1.23-1.551 2.703-2.591 4.415-3.12 1.028-.318 1.94-.4 2.739-.248.828.117 1.324.442 1.49.977.164.534.128 1.09-.11 1.67-.2.567-.586.938-1.157 1.115l-.114.035c-.951.294-1.984.121-3.1-.519-.144-.061-.193-.153-.147-.273a.626.626 0 0 1 .355-.27c.183-.083.346-.093.49-.031.198.098.543.204 1.037.318.532.102.93.111 1.197.029.457-.141.63-.66.52-1.557-.165-.534-1.104-.537-2.817-.008-.342.106-.62.219-.834.338-.175.107-.316.19-.423.25a1.93 1.93 0 0 0-.355.27l-.229.27a1.773 1.773 0 0 0-.286.288 1.015 1.015 0 0 0-.172.252c-.145.205-.382.517-.711.938-.29.41-.49.843-.598 1.302-.07.448-.043 1.011.084 1.69.157.643.238 1.177.244 1.6.044.413.089.692.134.837l.36 1.166c.277.898.526 1.433.746 1.605.22.171.405.3.557.386.319.221.675.364 1.07.428 1.779.222 3.086.203 3.924-.055.875-.27 1.733-.802 2.572-1.593.87-.828 1.463-1.61 1.778-2.345.53-1.387.634-2.603.311-3.647-.33-1.069-1.06-1.748-2.193-2.036-.6-.054-.882.113-.846.5.023.073.17.214.444.422.265.184.306.384.122.6-.145.205-.389.36-.731.466-.312.07-.544.062-.696-.024a3.205 3.205 0 0 0-.568-.423c-.22-.172-.364-.367-.431-.585-.068-.219.067-.593.403-1.123.375-.541.734-.865 1.076-.97ZM61.414 47.233c.952-.294 1.878-.061 2.78.698.94.747 1.56 1.606 1.86 2.577.3.972.146 2.23-.46 3.774-.615 1.52-1.555 2.728-2.821 3.625-1.12.692-1.89 1.102-2.309 1.232-1.575.433-3.283.508-5.121.225a7.262 7.262 0 0 1-3.245-1.391c-.985-.76-1.583-1.48-1.793-2.16-.21-.68-.328-1.668-.353-2.963.006-1.332.643-2.846 1.912-4.541 1.23-1.551 2.702-2.591 4.415-3.12 1.028-.318 1.94-.4 2.738-.248.828.117 1.325.442 1.49.976.165.535.129 1.091-.11 1.67-.2.567-.585.94-1.156 1.116l-.114.035c-.952.294-1.985.121-3.1-.519-.144-.062-.193-.153-.147-.273a.626.626 0 0 1 .354-.27c.183-.083.347-.093.491-.031.197.098.543.204 1.037.318.531.102.93.111 1.197.029.457-.141.63-.66.52-1.557-.166-.535-1.105-.537-2.817-.008-.343.106-.62.218-.834.338-.176.107-.317.19-.423.25a1.93 1.93 0 0 0-.355.27l-.23.27a1.77 1.77 0 0 0-.285.288 1.015 1.015 0 0 0-.172.252c-.146.205-.383.517-.711.938-.291.41-.49.843-.599 1.302-.07.448-.042 1.01.085 1.69.157.643.238 1.177.244 1.6.044.413.088.691.133.837l.36 1.166c.278.898.527 1.433.746 1.605.22.171.406.3.558.386.318.221.675.364 1.07.428 1.778.222 3.086.204 3.923-.055.876-.27 1.733-.802 2.573-1.593.87-.828 1.462-1.61 1.777-2.345.53-1.388.634-2.603.312-3.648-.33-1.068-1.061-1.747-2.193-2.035-.6-.054-.882.112-.846.5.023.073.17.214.443.422.265.184.306.384.123.6-.145.205-.39.36-.732.466-.312.07-.544.062-.695-.025a3.205 3.205 0 0 0-.569-.422c-.22-.172-.363-.367-.43-.585-.068-.219.066-.593.403-1.123.375-.541.733-.865 1.076-.97ZM85.654 51.954l.73-.066c.076-.024.24-.1.492-.232.343-.239.537-.285.582-.14.097.316-.056.63-.46.94-.397.336-.69.533-.88.592-.952.294-1.906.243-2.863-.153-.956-.397-1.688-.876-2.195-1.437-.507-.562-1.123-1.342-1.849-2.342-.194.992-.303 1.517-.326 1.578-.023.06-.15.258-.379.595-.42.663-.852 1.088-1.294 1.278-.403.178-.795.326-1.176.443-1.675.518-3.48.544-5.418.078-2.392-.59-3.84-1.7-4.342-3.327-.18-.583-.314-1.353-.401-2.31-.088-.957.316-2.013 1.21-3.167 1.017-1.298 2.21-2.16 3.58-2.583.685-.211 1.522-.204 2.51.023 1.161.253 1.859.756 2.091 1.509.233.752.066 1.562-.5 2.429-.214.385-.577.697-1.087.934-.48.202-1.035.293-1.666.275-.639-.042-1.03-.16-1.174-.355-.15-.22-.23-.408-.237-.566.031-.169.097-.362.197-.579.092-.241.138-.428.139-.562.046-.12.145-.204.297-.251.183-.083.328-.088.434-.014.136.037.204.123.204.256-.116.435-.09.786.075 1.054.06.06.24.099.536.114.707-.006 1.153-.317 1.338-.933.216-.651.29-1.087.222-1.305a3.363 3.363 0 0 0-.248-.602c-.098-.182-.474-.319-1.128-.41-.653-.09-1.094-.1-1.323-.03-1.636.506-2.602 1.563-2.898 3.17-.202 1.1-.22 1.917-.056 2.452.166.534.327.923.486 1.166.529.901 1.476 1.54 2.843 1.915 1.36.351 2.63.345 3.81-.02.228-.07.433-.147.616-.23.183-.083.39-.293.619-.63a29.5 29.5 0 0 0 .791-1.083c.253-.397.425-.65.516-.758.084-.132.162-.422.232-.87-.951-1.594-1.603-2.962-1.956-4.104-.36-1.165-.589-1.972-.686-2.421a17.09 17.09 0 0 1-.255-1.637 17.792 17.792 0 0 0-.109-1.363c-.256-2.315.156-4.557 1.237-6.727.306-.627.726-1.022 1.26-1.187l.113-.035c1.256-.255 2.165.528 2.728 2.35.72 2.33.56 5.32-.482 8.966-.177.64-.45 1.377-.819 2.209.376 1.08.779 1.98 1.21 2.699.43.718.785 1.327 1.064 1.826.272.474.529.9.77 1.278.234.353.544.75.93 1.189.75.939 1.53 1.31 2.345 1.11ZM78.82 41.576c.927-3.612 1.004-6.668.232-9.17-.226-.728-.57-1.1-1.034-1.117-.038.012-.053.03-.046.054a.542.542 0 0 1-.012.363c-.046.121-.1.284-.162.49-.062.205-.135.44-.22.706-.054.229-.09.586-.107 1.07-.017.484-.022.872-.016 1.162.045.28.119.722.223 1.328.096.582.173 1.237.231 1.964.096.715.354 1.886.773 3.512l.138-.362ZM42.49 86.758l-.145-.673c-.037-.121.013-.23.15-.325a.59.59 0 0 1 .4-.124c.167.002.27.063.307.184.165.535.434.73.807.589.442-.19.72-.569.837-1.137a.917.917 0 0 0-.01-.436l-.328-.457c-.09-.291-.295-.547-.613-.768a1.153 1.153 0 0 0-1.049-.155c-.19.059-.377.33-.562.812-.643 1.024-.795 2.082-.458 3.174.338 1.093 1.103 1.881 2.294 2.364.046.013.103.062.17.147.145.195.312.263.502.204.609-.188 1.265-.83 1.97-1.925 1.095-1.988 1.372-3.856.832-5.604-.233-.753-.554-1.252-.963-1.498-.372-.258-1.101-.325-2.189-.202-.282.034-.894.143-1.837.329-.951.16-1.632.251-2.043.271-.373.01-.802-.098-1.287-.32-.486-.222-.845-.71-1.078-1.463-.232-.753.046-1.81.834-3.17 1.034-1.783 2.35-2.921 3.949-3.415.761-.235 1.598-.228 2.509.023.95.238 1.536.722 1.762 1.45.217.705.134 1.449-.25 2.232-.352.748-.947 1.25-1.784 1.51-.381.117-.807.089-1.277-.085-.44-.21-.706-.394-.796-.552-.06-.194-.083-.334-.067-.418.046-.12.13-.253.252-.397.16-.157.268-.283.321-.379a.582.582 0 0 1 .377-.196c.198-.035.331-.01.4.076.098.05.105.14.021.273l.103-.072c-.245.288-.344.505-.3.651.038.121.137.237.296.348.159.11.315.142.467.095.609-.188 1.036-.56 1.282-1.114.276-.591.339-1.13.189-1.615-.15-.486-.56-.798-1.228-.938-.668-.139-1.174-.156-1.516-.05-1.37.424-2.404 1.262-3.101 2.515-.697 1.252-.93 2.255-.697 3.008.18.583.643.865 1.388.848.578-.019 1.22-.098 1.928-.237l1.416-.277c1.414-.145 2.47-.032 3.169.337.697.37 1.185 1.004 1.463 1.903.653 2.112.427 4.217-.676 6.314-.498.952-.808 1.5-.93 1.644-.765.9-1.47 1.451-2.117 1.651a4.324 4.324 0 0 1-1.894.147c-.608-.079-1.083-.198-1.424-.359-1.647-.741-2.695-1.84-3.146-3.297-.45-1.457-.22-2.872.69-4.244.407-.71 1.295-1.277 2.665-1.7l.114-.036c.723-.224 1.4-.127 2.029.29.63.418 1.03.906 1.203 1.465l-.071.58c.15.486-.069 1.059-.657 1.72-.588.66-1.054 1.043-1.396 1.15-.495.152-.897-.07-1.206-.666ZM57.103 74.023c.875-.27 1.795-.195 2.759.225.994.385 1.593.905 1.795 1.56.196.632.014 1.393-.545 2.284-.52.879-1.348 1.507-2.482 1.884-.533.165-1.541.277-3.024.336-1.452.023-2.49-.029-3.113-.156-.595 2.259.27 3.907 2.591 4.946.919.408 1.816.476 2.691.206.876-.27 1.775-.801 2.698-1.592.916-.815 1.436-1.494 1.56-2.038.161-.555.436-.88.825-.973.236-.046.376.003.421.149.045.146.029.364-.048.653-.233 1.003-.769 1.967-1.609 2.891-.802.913-1.812 1.558-3.03 1.934-1.873.552-3.542.616-5.007.19-1.42-.412-2.577-1.185-3.47-2.32-.494-1.602-.347-3.284.444-5.044.828-1.772 2.317-3.23 4.465-4.373.51-.237 1.204-.491 2.079-.762Zm1.44 4.863a1.9 1.9 0 0 0 1.225-1.097c.283-.567.361-1.056.234-1.469-.128-.413-.522-.743-1.182-.991-.623-.26-1.143-.326-1.562-.196-.419.13-.868.361-1.349.696-1.615.845-2.673 2.01-3.173 3.494.038-.012.152.02.342.094.22.038 1.045.01 2.475-.086 1.422-.12 2.419-.269 2.99-.445Z" fill="#fff"/><path d="m67.978 74.015-.439-1.62c-.39-1.263-.927-1.988-1.61-2.176-.365-.1-.813-.068-1.346.097-1.028.317-1.92 1.005-2.677 2.064-.765 1.034-1.042 1.891-.832 2.571.09.292.343.639.76 1.042.409.38.842.498 1.298.357a3.122 3.122 0 0 0 1.247-.824c.336-.396.455-.752.358-1.068-.105-.34-.249-.535-.431-.585-.144-.062-.403-.022-.776.12-.343.106-.586.128-.73.066a.334.334 0 0 1-.113-.364c.039-.145.172-.253.4-.324l-.01-.036.856-.265c.495-.152.924-.179 1.289-.079.357.076.626.406.806.988.172.559-.02 1.15-.578 1.775-.565.6-1.316 1.072-2.253 1.414-.57.177-1.285.025-2.142-.455-.826-.516-1.3-.969-1.42-1.357-.247-.935.108-2.082 1.064-3.441.986-1.396 2.108-2.287 3.364-2.675 1.294-.4 2.465-.39 3.512.032 1.708.669 2.904 1.909 3.589 3.719l.45 1.457c1.018-3.453 1.649-5.391 1.894-5.813 1.072-1.927 2.427-3.144 4.064-3.65.799-.246 1.604-.136 2.416.331.842.432 1.342.903 1.5 1.413.345 1.117.432 2.007.262 2.672-.578 2.04-.59 3.96-.035 5.757.66 2.136 1.787 3.757 3.379 4.861a4.08 4.08 0 0 0 1.337-.732c.48-.335.808-.49.983-.463.213.014.338.081.375.203.038.121-.027.248-.195.38-.938.742-1.75 1.219-2.435 1.43-.678.236-1.426.042-2.245-.583-.113-.098-.36-.288-.738-.57a20.31 20.31 0 0 1-.887-.644 9.904 9.904 0 0 0-.716-.696c-.59-.563-.953-1.063-1.089-1.5l-.303-.983c-.796-2.574-.947-4.682-.453-6.324.308-1.027.39-1.704.247-2.032-.285-.923-.618-1.326-.998-1.208-1.294.4-2.294 1.347-3 2.842a31.274 31.274 0 0 0-1.405 3.347c-.708 2.161-1.09 5.378-1.146 9.652.007.157-.176.307-.55.449-.334.13-.688.2-1.06.208-.335-.003-.525-.077-.57-.223-.26-1.65-.644-3.3-1.154-4.95-.518-1.676-.89-2.878-1.114-3.607Z" fill="#fff"/><path d="m88.425 72.566-.145-.674c-.038-.121.012-.23.15-.325a.59.59 0 0 1 .399-.124c.167.002.27.063.307.185.165.534.434.73.807.588.442-.19.721-.568.838-1.136a.918.918 0 0 0-.01-.436l-.329-.457c-.09-.292-.294-.548-.613-.769a1.153 1.153 0 0 0-1.048-.155c-.19.06-.378.33-.562.813-.643 1.023-.796 2.08-.458 3.174.338 1.092 1.102 1.88 2.294 2.363.045.013.102.062.17.147.144.195.311.263.501.205.61-.189 1.266-.83 1.97-1.926 1.095-1.987 1.373-3.856.832-5.604-.232-.753-.553-1.252-.963-1.498-.371-.258-1.1-.325-2.189-.202-.281.034-.894.144-1.837.329-.951.16-1.632.251-2.043.272-.372.008-.801-.098-1.287-.32-.486-.223-.845-.71-1.077-1.464-.233-.752.045-1.81.834-3.17 1.034-1.783 2.35-2.921 3.948-3.415.762-.235 1.598-.227 2.51.023.949.239 1.536.722 1.761 1.45.218.705.135 1.449-.249 2.232-.352.748-.948 1.25-1.785 1.51-.38.117-.806.09-1.277-.085-.44-.21-.705-.393-.796-.552-.06-.194-.082-.333-.067-.418.047-.12.13-.253.253-.397.16-.156.267-.282.32-.379a.582.582 0 0 1 .378-.196c.198-.035.33-.01.399.076.098.05.106.14.021.273l.103-.072c-.244.288-.344.505-.299.651.038.122.136.238.295.348.16.11.315.142.468.095.609-.188 1.036-.56 1.281-1.114.276-.591.34-1.13.19-1.615-.15-.486-.56-.798-1.228-.937-.669-.14-1.174-.156-1.517-.05-1.37.423-2.404 1.26-3.1 2.514-.698 1.253-.93 2.255-.698 3.008.18.583.643.866 1.388.848.578-.019 1.221-.098 1.929-.236.707-.14 1.18-.232 1.415-.278 1.415-.144 2.471-.032 3.169.338s1.186 1.003 1.463 1.902c.653 2.112.428 4.217-.676 6.314-.498.952-.808 1.5-.93 1.644-.764.901-1.47 1.452-2.117 1.652a4.326 4.326 0 0 1-1.894.146c-.607-.078-1.082-.198-1.424-.358-1.646-.742-2.695-1.841-3.145-3.298-.45-1.457-.22-2.872.69-4.243.406-.711 1.294-1.278 2.664-1.702l.115-.035c.723-.223 1.4-.126 2.028.291.63.417 1.03.905 1.203 1.464l-.07.58c.15.486-.07 1.06-.658 1.72-.588.66-1.053 1.044-1.396 1.15-.495.152-.897-.07-1.206-.665ZM103.037 59.83c.876-.27 1.796-.195 2.759.226.995.384 1.593.904 1.796 1.56.195.631.013 1.392-.545 2.283-.521.88-1.349 1.507-2.483 1.884-.533.165-1.541.277-3.024.336-1.452.023-2.49-.029-3.112-.156-.595 2.26.269 3.908 2.591 4.946.918.408 1.815.477 2.691.206.875-.27 1.774-.801 2.698-1.592.915-.815 1.435-1.494 1.559-2.038.162-.555.437-.88.825-.973.236-.046.376.004.421.15.045.145.029.363-.048.653-.232 1.002-.768 1.966-1.608 2.89-.802.914-1.812 1.558-3.03 1.935-1.873.552-3.542.615-5.008.19-1.42-.412-2.576-1.186-3.469-2.32-.495-1.603-.347-3.284.443-5.045.829-1.772 2.317-3.23 4.466-4.372.51-.238 1.203-.492 2.078-.762Zm1.44 4.863a1.9 1.9 0 0 0 1.225-1.097c.284-.566.362-1.056.234-1.469-.127-.413-.521-.743-1.182-.991-.622-.26-1.143-.325-1.561-.196-.419.13-.869.361-1.349.696-1.615.845-2.673 2.01-3.173 3.494.038-.011.152.02.341.094.22.039 1.046.01 2.475-.086 1.423-.12 2.419-.269 2.99-.445Z" fill="#fff"/></svg>