<svg width="32" height="32" fill="none" xmlns="http://www.w3.org/2000/svg"><g clip-path="url(#a)"><path d="M31.999 29.429a2.57 2.57 0 1 1-5.14 0C26.859 16.036 15.963 5.14 2.57 5.14a2.57 2.57 0 0 1 0-5.14C18.8 0 32 13.202 32 29.429ZM2.571 12.027a2.57 2.57 0 1 0 0 5.14c6.76 0 12.264 5.503 12.264 12.264a2.57 2.57 0 1 0 5.14 0c0-9.597-7.809-17.404-17.404-17.404Zm2.041 11.522a3.838 3.838 0 1 0 0 7.677 3.838 3.838 0 0 0 0-7.677Z" fill="#E5E5E5"/></g><defs><clipPath id="a"><path fill="#fff" d="M0 0h31.999v32H0z"/></clipPath></defs></svg>